<?xml version="1.0" encoding="UTF-8"?>
<svg width="1024" height="1024" viewBox="0 0 1024 1024" fill="none" xmlns="http://www.w3.org/2000/svg">
  <!-- Background gradient -->
  <defs>
    <linearGradient id="bgGradient" x1="0%" y1="0%" x2="100%" y2="100%">
      <stop offset="0%" style="stop-color:#0D1F1C"/>
      <stop offset="50%" style="stop-color:#1A3A35"/>
      <stop offset="100%" style="stop-color:#2A524A"/>
    </linearGradient>
    <linearGradient id="treeGradient" x1="50%" y1="100%" x2="50%" y2="0%">
      <stop offset="0%" style="stop-color:#4A8578"/>
      <stop offset="100%" style="stop-color:#7FC4B5"/>
    </linearGradient>
  </defs>

  <!-- Background -->
  <rect width="1024" height="1024" rx="224" fill="url(#bgGradient)"/>

  <!-- Tree Fractal - Representing connections/network -->
  <g transform="translate(512, 720)">
    <!-- Main trunk -->
    <path d="M0 0 L0 -120" stroke="url(#treeGradient)" stroke-width="24" stroke-linecap="round"/>

    <!-- Level 1 branches -->
    <g transform="translate(0, -120)">
      <!-- Center continuation -->
      <path d="M0 0 L0 -80" stroke="url(#treeGradient)" stroke-width="18" stroke-linecap="round"/>
      <!-- Left branch -->
      <path d="M0 0 L-80 -70" stroke="url(#treeGradient)" stroke-width="18" stroke-linecap="round"/>
      <!-- Right branch -->
      <path d="M0 0 L80 -70" stroke="url(#treeGradient)" stroke-width="18" stroke-linecap="round"/>
    </g>

    <!-- Level 2 branches - Center -->
    <g transform="translate(0, -200)">
      <path d="M0 0 L-40 -50" stroke="url(#treeGradient)" stroke-width="12" stroke-linecap="round"/>
      <path d="M0 0 L40 -50" stroke="url(#treeGradient)" stroke-width="12" stroke-linecap="round"/>
      <path d="M0 0 L0 -60" stroke="url(#treeGradient)" stroke-width="12" stroke-linecap="round"/>
    </g>

    <!-- Level 2 branches - Left -->
    <g transform="translate(-80, -190)">
      <path d="M0 0 L-50 -40" stroke="url(#treeGradient)" stroke-width="12" stroke-linecap="round"/>
      <path d="M0 0 L-20 -55" stroke="url(#treeGradient)" stroke-width="12" stroke-linecap="round"/>
      <path d="M0 0 L20 -50" stroke="url(#treeGradient)" stroke-width="12" stroke-linecap="round"/>
    </g>

    <!-- Level 2 branches - Right -->
    <g transform="translate(80, -190)">
      <path d="M0 0 L50 -40" stroke="url(#treeGradient)" stroke-width="12" stroke-linecap="round"/>
      <path d="M0 0 L20 -55" stroke="url(#treeGradient)" stroke-width="12" stroke-linecap="round"/>
      <path d="M0 0 L-20 -50" stroke="url(#treeGradient)" stroke-width="12" stroke-linecap="round"/>
    </g>

    <!-- Level 3 - Fine branches (Center) -->
    <g transform="translate(0, -260)">
      <path d="M0 0 L-20 -35" stroke="url(#treeGradient)" stroke-width="8" stroke-linecap="round"/>
      <path d="M0 0 L20 -35" stroke="url(#treeGradient)" stroke-width="8" stroke-linecap="round"/>
      <path d="M0 0 L0 -40" stroke="url(#treeGradient)" stroke-width="8" stroke-linecap="round"/>
    </g>

    <!-- Level 3 - Fine branches (Center-Left) -->
    <g transform="translate(-40, -250)">
      <path d="M0 0 L-25 -30" stroke="url(#treeGradient)" stroke-width="8" stroke-linecap="round"/>
      <path d="M0 0 L5 -35" stroke="url(#treeGradient)" stroke-width="8" stroke-linecap="round"/>
    </g>

    <!-- Level 3 - Fine branches (Center-Right) -->
    <g transform="translate(40, -250)">
      <path d="M0 0 L25 -30" stroke="url(#treeGradient)" stroke-width="8" stroke-linecap="round"/>
      <path d="M0 0 L-5 -35" stroke="url(#treeGradient)" stroke-width="8" stroke-linecap="round"/>
    </g>

    <!-- Level 3 - Fine branches (Far Left) -->
    <g transform="translate(-130, -230)">
      <path d="M0 0 L-30 -25" stroke="url(#treeGradient)" stroke-width="6" stroke-linecap="round"/>
      <path d="M0 0 L-10 -35" stroke="url(#treeGradient)" stroke-width="6" stroke-linecap="round"/>
      <path d="M0 0 L15 -30" stroke="url(#treeGradient)" stroke-width="6" stroke-linecap="round"/>
    </g>

    <!-- Level 3 - Fine branches (Mid Left) -->
    <g transform="translate(-100, -245)">
      <path d="M0 0 L-20 -30" stroke="url(#treeGradient)" stroke-width="6" stroke-linecap="round"/>
      <path d="M0 0 L10 -35" stroke="url(#treeGradient)" stroke-width="6" stroke-linecap="round"/>
    </g>

    <!-- Level 3 - Fine branches (Inner Left) -->
    <g transform="translate(-60, -240)">
      <path d="M0 0 L-15 -30" stroke="url(#treeGradient)" stroke-width="6" stroke-linecap="round"/>
      <path d="M0 0 L15 -25" stroke="url(#treeGradient)" stroke-width="6" stroke-linecap="round"/>
    </g>

    <!-- Level 3 - Fine branches (Far Right) -->
    <g transform="translate(130, -230)">
      <path d="M0 0 L30 -25" stroke="url(#treeGradient)" stroke-width="6" stroke-linecap="round"/>
      <path d="M0 0 L10 -35" stroke="url(#treeGradient)" stroke-width="6" stroke-linecap="round"/>
      <path d="M0 0 L-15 -30" stroke="url(#treeGradient)" stroke-width="6" stroke-linecap="round"/>
    </g>

    <!-- Level 3 - Fine branches (Mid Right) -->
    <g transform="translate(100, -245)">
      <path d="M0 0 L20 -30" stroke="url(#treeGradient)" stroke-width="6" stroke-linecap="round"/>
      <path d="M0 0 L-10 -35" stroke="url(#treeGradient)" stroke-width="6" stroke-linecap="round"/>
    </g>

    <!-- Level 3 - Fine branches (Inner Right) -->
    <g transform="translate(60, -240)">
      <path d="M0 0 L15 -30" stroke="url(#treeGradient)" stroke-width="6" stroke-linecap="round"/>
      <path d="M0 0 L-15 -25" stroke="url(#treeGradient)" stroke-width="6" stroke-linecap="round"/>
    </g>

    <!-- Level 4 - Finest tips (scattered) -->
    <g opacity="0.9">
      <!-- Top center tips -->
      <path d="M0 -300 L-12 -320" stroke="url(#treeGradient)" stroke-width="4" stroke-linecap="round"/>
      <path d="M0 -300 L12 -320" stroke="url(#treeGradient)" stroke-width="4" stroke-linecap="round"/>
      <path d="M0 -300 L0 -325" stroke="url(#treeGradient)" stroke-width="4" stroke-linecap="round"/>

      <!-- Left tips -->
      <path d="M-160 -255 L-175 -270" stroke="url(#treeGradient)" stroke-width="4" stroke-linecap="round"/>
      <path d="M-160 -255 L-150 -275" stroke="url(#treeGradient)" stroke-width="4" stroke-linecap="round"/>
      <path d="M-140 -265 L-155 -285" stroke="url(#treeGradient)" stroke-width="4" stroke-linecap="round"/>
      <path d="M-140 -265 L-125 -285" stroke="url(#treeGradient)" stroke-width="4" stroke-linecap="round"/>
      <path d="M-110 -275 L-120 -295" stroke="url(#treeGradient)" stroke-width="4" stroke-linecap="round"/>
      <path d="M-110 -275 L-95 -295" stroke="url(#treeGradient)" stroke-width="4" stroke-linecap="round"/>
      <path d="M-75 -270 L-85 -290" stroke="url(#treeGradient)" stroke-width="4" stroke-linecap="round"/>
      <path d="M-75 -270 L-60 -290" stroke="url(#treeGradient)" stroke-width="4" stroke-linecap="round"/>
      <path d="M-45 -280 L-55 -300" stroke="url(#treeGradient)" stroke-width="4" stroke-linecap="round"/>
      <path d="M-45 -280 L-30 -300" stroke="url(#treeGradient)" stroke-width="4" stroke-linecap="round"/>

      <!-- Right tips -->
      <path d="M160 -255 L175 -270" stroke="url(#treeGradient)" stroke-width="4" stroke-linecap="round"/>
      <path d="M160 -255 L150 -275" stroke="url(#treeGradient)" stroke-width="4" stroke-linecap="round"/>
      <path d="M140 -265 L155 -285" stroke="url(#treeGradient)" stroke-width="4" stroke-linecap="round"/>
      <path d="M140 -265 L125 -285" stroke="url(#treeGradient)" stroke-width="4" stroke-linecap="round"/>
      <path d="M110 -275 L120 -295" stroke="url(#treeGradient)" stroke-width="4" stroke-linecap="round"/>
      <path d="M110 -275 L95 -295" stroke="url(#treeGradient)" stroke-width="4" stroke-linecap="round"/>
      <path d="M75 -270 L85 -290" stroke="url(#treeGradient)" stroke-width="4" stroke-linecap="round"/>
      <path d="M75 -270 L60 -290" stroke="url(#treeGradient)" stroke-width="4" stroke-linecap="round"/>
      <path d="M45 -280 L55 -300" stroke="url(#treeGradient)" stroke-width="4" stroke-linecap="round"/>
      <path d="M45 -280 L30 -300" stroke="url(#treeGradient)" stroke-width="4" stroke-linecap="round"/>
    </g>

    <!-- Base/Root detail -->
    <path d="M-15 10 L-25 25" stroke="url(#treeGradient)" stroke-width="8" stroke-linecap="round" opacity="0.7"/>
    <path d="M15 10 L25 25" stroke="url(#treeGradient)" stroke-width="8" stroke-linecap="round" opacity="0.7"/>
    <rect x="-20" y="15" width="40" height="12" rx="3" fill="url(#treeGradient)" opacity="0.8"/>
  </g>
</svg>
